<svg id="Laag_1" data-name="Laag 1" xmlns="http://www.w3.org/2000/svg" viewBox="0 0 243 69"><defs><style>.cls-1{fill:#fff;stroke:#fff;stroke-miterlimit:10;stroke-width:2px;}</style></defs><path class="cls-1" d="M34.5,7.48A27.05,27.05,0,0,0,23.63,9.65a29.65,29.65,0,0,0-8.85,5.85,26.4,26.4,0,0,0-6,8.7,27.47,27.47,0,0,0,0,21.45,27.26,27.26,0,0,0,6,8.78,28.93,28.93,0,0,0,8.85,5.92A27.06,27.06,0,0,0,34.5,62.53a27,27,0,0,0,14.4-4.05l3.3,3.3a32.4,32.4,0,0,1-8.32,3.9A32,32,0,0,1,34.5,67a31.69,31.69,0,0,1-12.67-2.55,34.47,34.47,0,0,1-10.43-6.9,31.75,31.75,0,0,1-9.6-22.8,31.19,31.19,0,0,1,2.55-12.6A32.48,32.48,0,0,1,11.4,11.9a33.76,33.76,0,0,1,10.43-7A31.69,31.69,0,0,1,34.5,2.38,32.51,32.51,0,0,1,44.7,4a31,31,0,0,1,8.85,4.58L50,12.13A27.49,27.49,0,0,0,34.5,7.48Z"/><path class="cls-1" d="M70.5,2.23A31.69,31.69,0,0,1,83.17,4.78a34.47,34.47,0,0,1,10.43,6.9,31.59,31.59,0,0,1,7.05,10.2,31.19,31.19,0,0,1,2.55,12.6,31.75,31.75,0,0,1-9.6,22.8,34.47,34.47,0,0,1-10.43,6.9A31.69,31.69,0,0,1,70.5,66.73a32.26,32.26,0,0,1-12.75-2.55,33.28,33.28,0,0,1-10.43-6.9,32,32,0,0,1-7-10.28A31.32,31.32,0,0,1,37.8,34.48a31.19,31.19,0,0,1,2.55-12.6,32.17,32.17,0,0,1,7-10.2,33.28,33.28,0,0,1,10.43-6.9A32.26,32.26,0,0,1,70.5,2.23Zm-.15,59.4a27.06,27.06,0,0,0,10.87-2.18,29.65,29.65,0,0,0,8.85-5.85,26.4,26.4,0,0,0,6-8.7,27.47,27.47,0,0,0,0-21.45,26.4,26.4,0,0,0-6-8.7A29.65,29.65,0,0,0,81.22,8.9a28.13,28.13,0,0,0-21.67,0,29.24,29.24,0,0,0-8.92,5.85,26.25,26.25,0,0,0-6,8.7,26.57,26.57,0,0,0-2.18,10.73A26.52,26.52,0,0,0,44.63,44.9a26.25,26.25,0,0,0,6,8.7,29.24,29.24,0,0,0,8.92,5.85A27.25,27.25,0,0,0,70.35,61.63Z"/><path class="cls-1" d="M106.8,3h5.25V67H106.8Z"/><path class="cls-1" d="M154.05,3a29.65,29.65,0,0,1,9.9,4.5,35.31,35.31,0,0,1,7.87,7.57,36.28,36.28,0,0,1,5.33,9.9,34.42,34.42,0,0,1,1.95,11.63V67h-4.95V36.58a30.9,30.9,0,0,0-1.58-9.83,30.15,30.15,0,0,0-4.42-8.55,29.5,29.5,0,0,0-6.68-6.52,25.87,25.87,0,0,0-8.32-3.9,5.49,5.49,0,0,0-1.35-.3,15.93,15.93,0,0,0-2.25-.15H121.2V67h-5.4V2.38h33.45a18.67,18.67,0,0,1,2.92.22A14.41,14.41,0,0,1,154.05,3Z"/><path class="cls-1" d="M239.1,49.63c-.1,0-.15.12-.15.37a1.65,1.65,0,0,1-.6,1A29,29,0,0,1,233,57.8a34.44,34.44,0,0,1-6.83,5,30.91,30.91,0,0,1-7.72,3,33.9,33.9,0,0,1-8,1q-13.8,0-24.45-11l3.3-3.3a36.52,36.52,0,0,0,9.75,7.2,25.46,25.46,0,0,0,11.25,2.4,31.54,31.54,0,0,0,12.15-2.63,21.22,21.22,0,0,0,9.9-8.17L183,19.63l.6-1.05c.1-.1.15-.18.15-.23s.05-.12.15-.22A33.05,33.05,0,0,1,196.2,6.58a32.51,32.51,0,0,1,15.45-3.9A33.15,33.15,0,0,1,223.87,5a32.29,32.29,0,0,1,10.73,7c-.5.5-1,1-1.65,1.57s-1.15,1.08-1.65,1.58a28.23,28.23,0,0,0-19.5-8,27.07,27.07,0,0,0-12,2.77,30.14,30.14,0,0,0-10.05,8l48,30.6Z"/></svg>